<svg width="25" height="26" viewBox="0 0 25 26" fill="none" xmlns="http://www.w3.org/2000/svg">
<path d="M24.9922 13.2751C25.0062 12.4159 24.9147 11.5583 24.7195 10.7206H12.7505V15.3584H19.778C19.6448 16.1715 19.3453 16.9498 18.8973 17.6466C18.4494 18.3433 17.8623 18.9441 17.1713 19.4128L17.1477 19.5678L20.9331 22.442L21.1958 22.4678C22.4492 21.2809 23.4348 19.8497 24.0888 18.2664C24.7429 16.6832 25.051 14.9831 24.9931 13.276" fill="#4E90FF"/>
<path d="M12.7505 25.4953C15.8569 25.5809 18.8787 24.4972 21.195 22.467L17.1713 19.4128C15.8661 20.2694 14.3207 20.7044 12.7505 20.6589C11.138 20.6496 9.56943 20.143 8.26725 19.211C6.96506 18.2789 5.99542 16.9687 5.49586 15.4662L5.34589 15.4786L1.40953 18.4642L1.35772 18.6041C2.41789 20.6745 4.04484 22.4151 6.05665 23.6313C8.06846 24.8475 10.3858 25.4914 12.7496 25.4908" fill="#34A853"/>
<path d="M5.49564 15.4689C5.21694 14.6733 5.07325 13.8383 5.07029 12.9972C5.07511 12.1565 5.21372 11.3217 5.4811 10.5229L5.47383 10.3572L1.48838 7.32709L1.36114 7.38766C0.466183 9.12815 0 11.05 0 12.999C0 14.948 0.466183 16.8698 1.36114 18.6103L5.49837 15.4724" fill="#FBBC05"/>
<path d="M12.7505 5.33284C14.5777 5.30502 16.3449 5.97189 17.6812 7.19348L21.2804 3.75009C18.9721 1.62795 15.9153 0.463564 12.7505 0.500869C10.3867 0.500344 8.06933 1.14418 6.05752 2.36038C4.0457 3.57659 2.41876 5.31722 1.35858 7.38765L5.48218 10.5255C5.98656 9.02273 6.95966 7.71305 8.26422 6.78122C9.56878 5.8494 11.1389 5.34247 12.7532 5.33195" fill="#EB4335"/>
</svg>
