<svg width="151" height="23" viewBox="0 0 151 23" fill="none" xmlns="http://www.w3.org/2000/svg">
<g clip-path="url(#clip0_1142_5625)">
<path d="M16.5292 13.0156H5.51118V18.8906H18.0655V23H0.886719V0.15625H17.5068V4.20312H5.51118V9.04688H16.5137V13.0156H16.5292Z" fill="white"/>
<path d="M41.3276 22.9844H35.5703L31.2717 15.2188L26.7248 22.9844H21.2158L28.5094 11.3594L21.5727 0.15625H27.2369L31.2872 7.57812L35.4306 0.15625H40.9086L33.9719 11.1719L41.3276 22.9844Z" fill="white"/>
<path d="M53.9131 14.7812H49.1024V22.9844H44.4004V0.15625H54.27C56.5512 0.15625 58.3669 0.75 59.717 1.92188C61.0671 3.09375 61.7499 4.92188 61.7499 7.39062C61.7499 10.0781 61.0671 11.9844 59.717 13.1094C58.3669 14.2188 56.4271 14.7812 53.9131 14.7812ZM56.1322 10.0156C56.753 9.46875 57.0478 8.60938 57.0478 7.42188C57.0478 6.23438 56.7374 5.39062 56.1167 4.875C55.496 4.375 54.627 4.10938 53.5096 4.10938H49.1024V10.8281H53.5096C54.6425 10.8438 55.5115 10.5781 56.1322 10.0156Z" fill="white"/>
<path d="M98.419 14.0312H93.5307V22.9844H88.9062V0.15625H100.017C101.6 0.1875 102.826 0.390625 103.68 0.75C104.533 1.10938 105.263 1.64062 105.852 2.34375C106.349 2.92188 106.737 3.5625 107.016 4.26562C107.295 4.96875 107.451 5.76562 107.451 6.67188C107.451 7.75 107.171 8.82812 106.628 9.875C106.085 10.9219 105.185 11.6562 103.943 12.0938C104.983 12.5156 105.728 13.125 106.163 13.8906C106.597 14.6719 106.814 15.8594 106.814 17.4531V23C106.768 23 101.988 23 102.081 23L102.05 17.6719C102.035 16.2188 101.771 15.25 101.259 14.7656C100.762 14.2812 99.8156 14.0312 98.419 14.0312ZM101.29 9.89062C102.236 9.45312 102.702 8.59375 102.702 7.32812C102.702 5.9375 102.252 5.01562 101.336 4.54688C100.824 4.28125 100.048 4.14062 99.0242 4.14062H93.5307V10.2656H98.9C99.9553 10.25 100.762 10.125 101.29 9.89062Z" fill="white"/>
<path d="M127.656 0.15625V4.20312H120.875V22.9844H116.11V4.20312H109.298V0.15625H127.656Z" fill="white"/>
<path d="M150.886 4.54687V0.125C146.045 0.125 141.917 3.1875 140.287 7.48437C138.642 3.1875 134.499 0.109375 129.657 0.109375V4.53125C133.49 4.53125 136.625 7.67188 136.625 11.5469C136.625 15.4219 133.506 18.5625 129.657 18.5625V22.9844C134.499 22.9844 138.642 19.9062 140.272 15.6094C141.901 19.9062 146.045 22.9687 150.871 22.9687V18.5469C147.038 18.5469 143.919 15.4062 143.919 11.5469C143.919 7.6875 147.053 4.54687 150.886 4.54687ZM129.874 22.7656V18.7812C133.739 18.6562 136.842 15.4687 136.842 11.5469C136.842 7.625 133.739 4.4375 129.874 4.3125V0.34375C135.911 0.46875 140.799 5.45312 140.799 11.5625C140.799 17.6719 135.927 22.6562 129.874 22.7656Z" fill="#FF5017"/>
<path d="M74.9243 0C72.7672 0 70.7653 0.515625 68.9032 1.53125C67.041 2.54688 65.5822 3.9375 64.5115 5.6875C63.4407 7.4375 62.9131 9.35937 62.9131 11.4375C62.9131 14.5469 64.0614 17.25 66.3426 19.5C68.6238 21.7656 71.4947 22.8906 74.9553 22.8906C78.2452 22.8906 81.054 21.7812 83.3662 19.5781C85.6784 17.375 86.8268 14.6719 86.8268 11.5C86.8268 8.28125 85.6474 5.5625 83.3197 3.32812C80.9764 1.125 78.1676 0 74.9243 0ZM80.2626 16.7656C78.8038 18.1875 77.0347 18.9062 74.9553 18.9062C73.1241 18.9062 71.4947 18.3594 70.067 17.2656C68.2359 15.8594 67.3203 13.9531 67.3203 11.5469C67.3203 9.375 68.0496 7.59375 69.4928 6.1875C70.9516 4.78125 72.7362 4.07812 74.8622 4.07812C76.9727 4.07812 78.7573 4.79688 80.2315 6.23438C81.7058 7.67188 82.4351 9.4375 82.4351 11.5C82.4506 13.5781 81.7213 15.3438 80.2626 16.7656Z" fill="white"/>
</g>
<defs>
<clipPath id="clip0_1142_5625">
<rect width="150" height="23" fill="white" transform="translate(0.886719)"/>
</clipPath>
</defs>
</svg>
